<?xml version="1.0" encoding="UTF-8" standalone="no"?>
<!-- Created with Inkscape (http://www.inkscape.org/) -->

<svg
   xmlns:dc="http://purl.org/dc/elements/1.1/"
   xmlns:cc="http://creativecommons.org/ns#"
   xmlns:rdf="http://www.w3.org/1999/02/22-rdf-syntax-ns#"
   xmlns:svg="http://www.w3.org/2000/svg"
   xmlns="http://www.w3.org/2000/svg"
   xmlns:sodipodi="http://sodipodi.sourceforge.net/DTD/sodipodi-0.dtd"
   xmlns:inkscape="http://www.inkscape.org/namespaces/inkscape"
   width="95.25mm"
   height="142.875mm"
   viewBox="0 0 95.25 142.875"
   version="1.1"
   id="svg8415"
   sodipodi:docname="3D.svg"
   inkscape:version="0.92.2 2405546, 2018-03-11">
  <defs
     id="defs8409">
    <inkscape:path-effect
       effect="spiro"
       id="path-effect17935-89"
       is_visible="true" />
    <inkscape:path-effect
       effect="spiro"
       id="path-effect17939-8"
       is_visible="true" />
    <inkscape:path-effect
       effect="spiro"
       id="path-effect17935-8-7"
       is_visible="true" />
    <inkscape:path-effect
       effect="spiro"
       id="path-effect17939-6-0"
       is_visible="true" />
    <inkscape:path-effect
       effect="spiro"
       id="path-effect17935-9-8-2-5-09-4-0"
       is_visible="true" />
    <inkscape:path-effect
       effect="spiro"
       id="path-effect17935-9-8-2-5-09-4-1-8"
       is_visible="true" />
    <inkscape:path-effect
       effect="spiro"
       id="path-effect17935-9-8-2-5-09-4-0-3"
       is_visible="true" />
    <inkscape:path-effect
       effect="spiro"
       id="path-effect17935-9-8-2-5-09-4-1-8-6"
       is_visible="true" />
  </defs>
  <sodipodi:namedview
     id="base"
     pagecolor="#ffffff"
     bordercolor="#666666"
     borderopacity="1.0"
     inkscape:pageopacity="0.0"
     inkscape:pageshadow="2"
     inkscape:zoom="0.35"
     inkscape:cx="84.285723"
     inkscape:cy="219.99979"
     inkscape:document-units="mm"
     inkscape:current-layer="layer1"
     showgrid="true"
     showguides="false"
     inkscape:window-width="2560"
     inkscape:window-height="1421"
     inkscape:window-x="3200"
     inkscape:window-y="0"
     inkscape:window-maximized="1">
    <inkscape:grid
       type="xygrid"
       id="grid8435"
       originx="-113.77083"
       originy="-89.958375" />
  </sodipodi:namedview>
  <metadata
     id="metadata8412">
    <rdf:RDF>
      <cc:Work
         rdf:about="">
        <dc:format>image/svg+xml</dc:format>
        <dc:type
           rdf:resource="http://purl.org/dc/dcmitype/StillImage" />
        <dc:title></dc:title>
      </cc:Work>
    </rdf:RDF>
  </metadata>
  <g
     inkscape:label="Layer 1"
     inkscape:groupmode="layer"
     id="layer1"
     transform="translate(-113.77083,-64.166649)">
    <g
       transform="matrix(0.26458333,0,0,0.26458333,113.77083,-71.395843)"
       id="g3042">
      <rect
         rx="29.944447"
         ry="29.944447"
         y="512.86218"
         x="0.5"
         height="539"
         width="359"
         id="rect6472-03"
         style="fill:#ffffff;stroke:#000000;stroke-width:0.99999976" />
      <path
         style="fill:#ff5555;fill-opacity:1;stroke:none"
         id="rect3163-5-1-4-3-4-0-8"
         d="m 30,542.36208 c -5.54,0 -10,4.46 -10,10 v 5 h 5 v -5 c 0,-2.77 2.23,-5 5,-5 2.77,0 5,2.23 5,5 v 5 c 0,2.77 -2.23,5 -5,5 h -5 v 5 h 5 c 2.77,0 5,2.23 5,5 v 10 c 0,2.77 -2.23,5 -5,5 -2.77,0 -5,-2.23 -5,-5 v -5 h -5 v 5 c 0,5.54 4.46,10 10,10 5.54,0 10,-4.46 10,-10 v -10 c 0,-3.0036 -1.32295,-5.67 -3.40625,-7.5 2.0833,-1.83 3.40625,-4.4964 3.40625,-7.5 v -5 c 0,-5.54 -4.46,-10 -10,-10 z"
         inkscape:connector-curvature="0" />
      <path
         style="fill:#ff5555;fill-opacity:1;stroke:none"
         id="rect3163-5-1-4-3-4-0-4-2"
         d="m 330,1022.3622 c 5.54,0 10,-4.46 10,-10 v -5 h -5 v 5 c 0,2.77 -2.23,5 -5,5 -2.77,0 -5,-2.23 -5,-5 v -5 c 0,-2.77 2.23,-5 5,-5 h 5 v -5.00002 h -5 c -2.77,0 -5,-2.23 -5,-5.00002 v -10 c 0,-2.77 2.23,-5 5,-5 2.77,0 5,2.23 5,5 v 5 h 5 v -5 c 0,-5.54 -4.46,-10 -10,-10 -5.54,0 -10,4.46 -10,10 v 10 c 0,3.00362 1.32295,5.67002 3.40625,7.50004 -2.0833,1.83 -3.40625,4.4964 -3.40625,7.5 v 5 c 0,5.54 4.46,10 10,10 z"
         inkscape:connector-curvature="0" />
      <path
         sodipodi:nodetypes="czczczczc"
         inkscape:connector-curvature="0"
         id="path3204-24-1-52"
         d="m 30,602.36218 c 0,0 3,7.5 6.5,12.5 3.5,5 8.5,10 8.5,10 0,0 -5,5 -8.5,10 -3.5,5 -6.5,12.5 -6.5,12.5 0,0 -3,-7.5 -6.5,-12.5 -3.5,-5 -8.5,-10 -8.5,-10 0,0 5,-5 8.5,-10 3.5,-5 6.5,-12.5 6.5,-12.5"
         style="fill:#ff5555;stroke:none" />
      <path
         sodipodi:nodetypes="czczczczc"
         inkscape:connector-curvature="0"
         id="path3204-24-1-1-0"
         d="m 330,917.36218 c 0,0 3,7.5 6.5,12.5 3.5,5 8.5,10 8.5,10 0,0 -5,5 -8.5,10 -3.5,5 -6.5,12.5 -6.5,12.5 0,0 -3,-7.5 -6.5,-12.5 -3.5,-5 -8.5,-10 -8.5,-10 0,0 5,-5 8.5,-10 3.5,-5 6.5,-12.5 6.5,-12.5"
         style="fill:#ff5555;stroke:none" />
      <path
         sodipodi:nodetypes="czczczczc"
         inkscape:connector-curvature="0"
         id="path3204-24-4-3"
         d="m 180,557.36218 c 0,0 6,15 13,25 7,10 17,20 17,20 0,0 -10,10 -17,20 -7,10 -13,25 -13,25 0,0 -6,-15 -13,-25 -7,-10 -17,-20 -17,-20 0,0 10,-10 17,-20 7,-10 13,-25 13,-25"
         style="fill:#ff5555;stroke:none" />
      <path
         sodipodi:nodetypes="czczczczc"
         inkscape:connector-curvature="0"
         id="path3204-24-72"
         d="m 180,737.36218 c 0,0 6,15 13,25 7,10 17,20 17,20 0,0 -10,10 -17,20 -7,10 -13,25 -13,25 0,0 -6,-15 -13,-25 -7,-10 -17,-20 -17,-20 0,0 10,-10 17,-20 7,-10 13,-25 13,-25"
         style="fill:#ff5555;stroke:none" />
      <path
         sodipodi:nodetypes="czczczczc"
         inkscape:connector-curvature="0"
         id="path3204-24-0-97"
         d="m 180,917.36218 c 0,0 6,15 13,25 7,10 17,20 17,20 0,0 -10,10 -17,20 -7,10 -13,25.00002 -13,25.00002 0,0 -6,-15.00002 -13,-25.00002 -7,-10 -17,-20 -17,-20 0,0 10,-10 17,-20 7,-10 13,-25 13,-25"
         style="fill:#ff5555;stroke:none" />
    </g>
  </g>
</svg>
