<?xml version="1.0" encoding="UTF-8" standalone="no"?>
<!-- Created with Inkscape (http://www.inkscape.org/) -->

<svg
   xmlns:dc="http://purl.org/dc/elements/1.1/"
   xmlns:cc="http://creativecommons.org/ns#"
   xmlns:rdf="http://www.w3.org/1999/02/22-rdf-syntax-ns#"
   xmlns:svg="http://www.w3.org/2000/svg"
   xmlns="http://www.w3.org/2000/svg"
   xmlns:sodipodi="http://sodipodi.sourceforge.net/DTD/sodipodi-0.dtd"
   xmlns:inkscape="http://www.inkscape.org/namespaces/inkscape"
   width="95.25mm"
   height="142.875mm"
   viewBox="0 0 95.25 142.875"
   version="1.1"
   id="svg8415"
   sodipodi:docname="4S.svg"
   inkscape:version="0.92.2 2405546, 2018-03-11">
  <defs
     id="defs8409" />
  <sodipodi:namedview
     id="base"
     pagecolor="#ffffff"
     bordercolor="#666666"
     borderopacity="1.0"
     inkscape:pageopacity="0.0"
     inkscape:pageshadow="2"
     inkscape:zoom="0.35"
     inkscape:cx="-10.000013"
     inkscape:cy="-110.00004"
     inkscape:document-units="mm"
     inkscape:current-layer="layer1"
     showgrid="true"
     showguides="false"
     inkscape:window-width="2560"
     inkscape:window-height="1421"
     inkscape:window-x="3200"
     inkscape:window-y="0"
     inkscape:window-maximized="1">
    <inkscape:grid
       type="xygrid"
       id="grid8435"
       originx="-108.47917"
       originy="-177.27084" />
  </sodipodi:namedview>
  <metadata
     id="metadata8412">
    <rdf:RDF>
      <cc:Work
         rdf:about="">
        <dc:format>image/svg+xml</dc:format>
        <dc:type
           rdf:resource="http://purl.org/dc/dcmitype/StillImage" />
        <dc:title></dc:title>
      </cc:Work>
    </rdf:RDF>
  </metadata>
  <g
     inkscape:label="Layer 1"
     inkscape:groupmode="layer"
     id="layer1"
     transform="translate(-108.47917,23.145838)">
    <g
       transform="matrix(0.26458333,0,0,0.26458333,108.47917,-158.70833)"
       id="g3079">
      <rect
         rx="29.944447"
         ry="29.944447"
         y="512.86218"
         x="0.5"
         height="539"
         width="359"
         id="rect6472-2"
         style="fill:#ffffff;stroke:#000000;stroke-width:0.99999976" />
      <path
         style="fill:#000000;fill-opacity:1;stroke:none"
         id="rect3980-7-6-2-9-9-2"
         d="m 30,542.36208 -10,35.00001 v 4.99999 h 12 v 10 h 5 v -10 h 3 v -4.99999 H 37 V 562.3621 h -5 v 14.99999 h -6.8 l 9.99999,-35.00001 z"
         inkscape:connector-curvature="0" />
      <path
         style="fill:#000000;fill-opacity:1;stroke:none"
         id="rect3980-7-6-2-9-9-8-2"
         d="m 330,1022.3622 10,-35.00004 v -5 h -12 v -10 h -5 v 10 h -3 v 5 h 3 v 15.00004 h 5 v -15.00004 h 6.8 l -9.99999,35.00004 z"
         inkscape:connector-curvature="0" />
      <path
         style="fill:#000000;fill-opacity:1;stroke:none"
         d="m 32.5,630.36218 c 0.5,2 2.5,7 6,7 4.5,0 6.5,-4 6.5,-9 0,-3.5 -1.289475,-5.80614 -2.5,-8.5 -1.28894,-2.86836 -3.18966,-5.4287 -5,-8 -2.32265,-3.29895 -7.5,-9.5 -7.5,-9.5 0,0 -5.17735,6.20105 -7.5,9.5 -1.81034,2.5713 -3.71106,5.13164 -5,8 -1.210525,2.69386 -2.5,5 -2.5,8.5 0,5 2,9 6.5,9 3.5,0 5.5,-5 6,-7 0.5,-0.5 0.5,0 0.5,0.5 -0.5,4 -0.5,5 -1,8 -0.5,3 -2,8.5 -2,8.5 2.5,-1 7.5,-1 10,0 0,0 -1.5,-5.5 -2,-8.5 -0.5,-3 -0.5,-4 -1,-8 0,-0.5 0,-1 0.5,-0.5 z"
         id="path3037-7-4-7-6"
         inkscape:connector-curvature="0"
         sodipodi:nodetypes="cssaacaassccsccscc" />
      <path
         style="fill:#000000;fill-opacity:1;stroke:none"
         d="m 332.5,934.36218 c 0.5,-2 2.5,-7 6,-7 4.5,0 6.5,4 6.5,9 0,3.5 -1.28947,5.80614 -2.5,8.5 -1.28894,2.86836 -3.18966,5.4287 -5,8 -2.32265,3.29895 -7.5,9.5 -7.5,9.5 0,0 -5.17735,-6.20105 -7.5,-9.5 -1.81034,-2.5713 -3.71106,-5.13164 -5,-8 -1.21053,-2.69386 -2.5,-5 -2.5,-8.5 0,-5 2,-9 6.5,-9 3.5,0 5.5,5 6,7 0.5,0.5 0.5,0 0.5,-0.5 -0.5,-4 -0.5,-5 -1,-8 -0.5,-3 -2,-8.5 -2,-8.5 2.5,1 7.5,1 10,0 0,0 -1.5,5.5 -2,8.5 -0.5,3 -0.5,4 -1,8 0,0.5 0,1 0.5,0.5 z"
         id="path3037-7-4-4-4"
         inkscape:connector-curvature="0"
         sodipodi:nodetypes="cssaacaassccsccscc" />
      <g
         transform="translate(60,557.36218)"
         id="g3027">
        <path
           inkscape:connector-curvature="0"
           style="fill:#000000;fill-opacity:1;fill-rule:nonzero;stroke:none"
           d="m 35.007873,55.984252 c 0.992126,4.003937 4.996063,14.031496 11.976378,14.031496 9,0 13.003937,-8.007874 13.003937,-18 C 59.988188,45 57.437006,40.393701 54.992125,35.007874 52.405511,29.267717 48.614172,24.129921 44.999999,18.992126 40.358267,12.401575 30.01181,0 30.01181,0 c 0,0 -10.381889,12.401575 -15.023621,18.992126 C 11.374015,24.129921 7.582677,29.267717 4.9960629,35.007874 2.5866141,40.393701 0,45 0,52.015748 c 0,9.992126 4.0039369,18 13.003937,18 6.980314,0 10.984251,-10.027559 12.01181,-14.031496 0.992126,-0.992126 0.992126,0 0.992126,1.027559 -0.992126,7.972441 -0.992126,9.992126 -2.019685,15.980315 C 22.996062,79.015748 19.984251,90 19.984251,90 c 5.031496,-1.984252 15.023622,-1.984252 20.019685,0 0,0 -3.011811,-10.984252 -4.003937,-17.007874 -0.992126,-5.988189 -0.992126,-8.007874 -1.984252,-15.980315 0,-1.027559 0,-2.019685 0.992126,-1.027559 z"
           id="path3029" />
      </g>
      <g
         transform="translate(240,557.36218)"
         id="g3041">
        <path
           inkscape:connector-curvature="0"
           style="fill:#000000;fill-opacity:1;fill-rule:nonzero;stroke:none"
           d="m 35.007873,55.984252 c 0.992126,4.003937 4.996063,14.031496 11.976378,14.031496 9,0 13.003937,-8.007874 13.003937,-18 C 59.988188,45 57.437006,40.393701 54.992125,35.007874 52.405511,29.267717 48.614172,24.129921 44.999999,18.992126 40.358267,12.401575 30.01181,0 30.01181,0 c 0,0 -10.381889,12.401575 -15.023621,18.992126 C 11.374015,24.129921 7.582677,29.267717 4.9960629,35.007874 2.5866141,40.393701 0,45 0,52.015748 c 0,9.992126 4.0039369,18 13.003937,18 6.980314,0 10.984251,-10.027559 12.01181,-14.031496 0.992126,-0.992126 0.992126,0 0.992126,1.027559 -0.992126,7.972441 -0.992126,9.992126 -2.019685,15.980315 C 22.996062,79.015748 19.984251,90 19.984251,90 c 5.031496,-1.984252 15.023622,-1.984252 20.019685,0 0,0 -3.011811,-10.984252 -4.003937,-17.007874 -0.992126,-5.988189 -0.992126,-8.007874 -1.984252,-15.980315 0,-1.027559 0,-2.019685 0.992126,-1.027559 z"
           id="path3043" />
      </g>
      <g
         transform="matrix(1,0,0,-1,60,1007.3622)"
         id="g3055">
        <path
           inkscape:connector-curvature="0"
           style="fill:#000000;fill-opacity:1;fill-rule:nonzero;stroke:none"
           d="m 35.007873,55.984252 c 0.992126,4.003937 4.996063,14.031496 11.976378,14.031496 9,0 13.003937,-8.007874 13.003937,-18 C 59.988188,45 57.437006,40.393701 54.992125,35.007874 52.405511,29.267717 48.614172,24.129921 44.999999,18.992126 40.358267,12.401575 30.01181,0 30.01181,0 c 0,0 -10.381889,12.401575 -15.023621,18.992126 C 11.374015,24.129921 7.582677,29.267717 4.9960629,35.007874 2.5866141,40.393701 0,45 0,52.015748 c 0,9.992126 4.0039369,18 13.003937,18 6.980314,0 10.984251,-10.027559 12.01181,-14.031496 0.992126,-0.992126 0.992126,0 0.992126,1.027559 -0.992126,7.972441 -0.992126,9.992126 -2.019685,15.980315 C 22.996062,79.015748 19.984251,90 19.984251,90 c 5.031496,-1.984252 15.023622,-1.984252 20.019685,0 0,0 -3.011811,-10.984252 -4.003937,-17.007874 -0.992126,-5.988189 -0.992126,-8.007874 -1.984252,-15.980315 0,-1.027559 0,-2.019685 0.992126,-1.027559 z"
           id="path3057" />
      </g>
      <g
         transform="matrix(1,0,0,-1,240,1007.3622)"
         id="g3069">
        <path
           inkscape:connector-curvature="0"
           style="fill:#000000;fill-opacity:1;fill-rule:nonzero;stroke:none"
           d="m 35.007873,55.984252 c 0.992126,4.003937 4.996063,14.031496 11.976378,14.031496 9,0 13.003937,-8.007874 13.003937,-18 C 59.988188,45 57.437006,40.393701 54.992125,35.007874 52.405511,29.267717 48.614172,24.129921 44.999999,18.992126 40.358267,12.401575 30.01181,0 30.01181,0 c 0,0 -10.381889,12.401575 -15.023621,18.992126 C 11.374015,24.129921 7.582677,29.267717 4.9960629,35.007874 2.5866141,40.393701 0,45 0,52.015748 c 0,9.992126 4.0039369,18 13.003937,18 6.980314,0 10.984251,-10.027559 12.01181,-14.031496 0.992126,-0.992126 0.992126,0 0.992126,1.027559 -0.992126,7.972441 -0.992126,9.992126 -2.019685,15.980315 C 22.996062,79.015748 19.984251,90 19.984251,90 c 5.031496,-1.984252 15.023622,-1.984252 20.019685,0 0,0 -3.011811,-10.984252 -4.003937,-17.007874 -0.992126,-5.988189 -0.992126,-8.007874 -1.984252,-15.980315 0,-1.027559 0,-2.019685 0.992126,-1.027559 z"
           id="path3071" />
      </g>
    </g>
  </g>
</svg>
