<?xml version="1.0" encoding="UTF-8" standalone="no"?>
<!-- Created with Inkscape (http://www.inkscape.org/) -->

<svg
   xmlns:dc="http://purl.org/dc/elements/1.1/"
   xmlns:cc="http://creativecommons.org/ns#"
   xmlns:rdf="http://www.w3.org/1999/02/22-rdf-syntax-ns#"
   xmlns:svg="http://www.w3.org/2000/svg"
   xmlns="http://www.w3.org/2000/svg"
   xmlns:sodipodi="http://sodipodi.sourceforge.net/DTD/sodipodi-0.dtd"
   xmlns:inkscape="http://www.inkscape.org/namespaces/inkscape"
   width="95.25mm"
   height="142.875mm"
   viewBox="0 0 95.25 142.875"
   version="1.1"
   id="svg8415"
   sodipodi:docname="5H.svg"
   inkscape:version="0.92.2 2405546, 2018-03-11">
  <defs
     id="defs8409">
    <inkscape:path-effect
       effect="spiro"
       id="path-effect17935-89"
       is_visible="true" />
    <inkscape:path-effect
       effect="spiro"
       id="path-effect17939-8"
       is_visible="true" />
    <inkscape:path-effect
       effect="spiro"
       id="path-effect17935-8-7"
       is_visible="true" />
    <inkscape:path-effect
       effect="spiro"
       id="path-effect17939-6-0"
       is_visible="true" />
  </defs>
  <sodipodi:namedview
     id="base"
     pagecolor="#ffffff"
     bordercolor="#666666"
     borderopacity="1.0"
     inkscape:pageopacity="0.0"
     inkscape:pageshadow="2"
     inkscape:zoom="0.35"
     inkscape:cx="110"
     inkscape:cy="219.99986"
     inkscape:document-units="mm"
     inkscape:current-layer="layer1"
     showgrid="true"
     showguides="false"
     inkscape:window-width="2560"
     inkscape:window-height="1421"
     inkscape:window-x="3200"
     inkscape:window-y="0"
     inkscape:window-maximized="1">
    <inkscape:grid
       type="xygrid"
       id="grid8435"
       originx="-76.729166"
       originy="-89.95836" />
  </sodipodi:namedview>
  <metadata
     id="metadata8412">
    <rdf:RDF>
      <cc:Work
         rdf:about="">
        <dc:format>image/svg+xml</dc:format>
        <dc:type
           rdf:resource="http://purl.org/dc/dcmitype/StillImage" />
        <dc:title></dc:title>
      </cc:Work>
    </rdf:RDF>
  </metadata>
  <g
     inkscape:label="Layer 1"
     inkscape:groupmode="layer"
     id="layer1"
     transform="translate(-76.729166,-64.166653)">
    <g
       transform="matrix(0.26458333,0,0,0.26458333,76.729166,-71.395839)"
       id="g3053">
      <rect
         rx="29.944447"
         ry="29.944447"
         y="512.86218"
         x="0.5"
         height="539"
         width="359"
         id="rect6472-58"
         style="fill:#ffffff;stroke:#000000;stroke-width:0.99999976" />
      <path
         sodipodi:nodetypes="csccsscssccscc"
         inkscape:connector-curvature="0"
         id="path3126-1-6"
         d="m 179,757.36218 c 0,-11.04569 -5.71573,-20 -14,-20 -8.28427,0 -15,8.95431 -15,20 0.0349,0.95559 0.0182,1.89119 0,2.8125 0,7.29848 2.67685,14.37684 5,21 2.38903,6.81096 5.83357,12.78067 9.0625,18.875 5.00123,9.4394 15.9375,27.3125 15.9375,27.3125 0,0 10.93627,-17.8731 15.9375,-27.3125 3.22893,-6.09433 6.67347,-12.06404 9.0625,-18.875 2.32315,-6.62316 5,-13.70152 5,-21 -0.0284,-0.9744 -0.0186,-1.91462 0,-2.8125 0,-11.04569 -6.71573,-20 -15,-20 -8.28427,0 -14,8.95431 -14,20 z"
         style="fill:#ff5555;fill-opacity:1;stroke:none" />
      <path
         style="fill:#ff5555;fill-opacity:1;stroke:none"
         id="rect3163-6-0-0-2"
         d="m 20,542.36208 v 14.99999 5 h 10 c 2.77,0 5.00001,2.23 5.00001,5.00005 v 14.99996 c 0,2.77001 -2.23001,5.00001 -5.00001,5.00001 -2.77,0 -5,-2.23 -5,-5.00001 v -4.99999 h -5 v 4.99999 c 0,5.54 4.46,10 10,10 5.54001,0 10,-4.46 10,-10 v -14.99996 c 0,-5.54005 -4.45999,-10.00005 -10,-10.00005 h -5 v -9.99998 h 5 10 v -5.00001 H 30 25 Z"
         inkscape:connector-curvature="0" />
      <path
         style="fill:#ff5555;fill-opacity:1;stroke:none"
         id="rect3163-6-0-0-2-4"
         d="m 340,1022.3622 v -15 -5 h -10 c -2.77,0 -5.00001,-2.23 -5.00001,-5.00006 v -15.00002 c 0,-2.77 2.23001,-5 5.00001,-5 2.77,0 5,2.23 5,5 v 5 h 5 v -5 c 0,-5.54 -4.46,-10 -10,-10 -5.54001,0 -10,4.46 -10,10 v 15.00002 c 0,5.54006 4.45999,10.00006 10,10.00006 h 5 v 10 h -5 -10 v 5 h 10 5 z"
         inkscape:connector-curvature="0" />
      <path
         style="fill:#ff5555;fill-opacity:1;stroke:none"
         d="m 89,575.36218 c 0,-11.04569 -5.71573,-18 -14,-18 -8.28427,0 -15,8.95431 -15,20 0.0349,0.95559 0.0182,1.89119 0,2.8125 0,7.29848 2.67685,14.37684 5,21 2.38903,6.81096 5.83357,12.78067 9.0625,18.875 5.00123,9.4394 15.9375,27.3125 15.9375,27.3125 0,0 10.93627,-17.8731 15.9375,-27.3125 3.22893,-6.09433 6.67347,-12.06404 9.0625,-18.875 2.32315,-6.62316 5,-13.70152 5,-21 -0.0284,-0.9744 -0.0186,-1.91462 0,-2.8125 0,-11.04569 -6.71573,-20 -15,-20 -8.28427,0 -14,6.95431 -14,18 0,2 -2,2 -2,0 z"
         id="path3126-2"
         inkscape:connector-curvature="0"
         sodipodi:nodetypes="csccsscssccscc" />
      <path
         style="fill:#ff5555;fill-opacity:1;stroke:none"
         d="m 269,575.36218 c 0,-11.04569 -5.71573,-18 -14,-18 -8.28427,0 -15,8.95431 -15,20 0.0349,0.95559 0.0182,1.89119 0,2.8125 0,7.29848 2.67685,14.37684 5,21 2.38903,6.81096 5.83357,12.78067 9.0625,18.875 5.00123,9.4394 15.9375,27.3125 15.9375,27.3125 0,0 10.93627,-17.8731 15.9375,-27.3125 3.22893,-6.09433 6.67347,-12.06404 9.0625,-18.875 2.32315,-6.62316 5,-13.70152 5,-21 -0.0284,-0.9744 -0.0186,-1.91462 0,-2.8125 0,-11.04569 -6.71573,-20 -15,-20 -8.28427,0 -14,6.95431 -14,18 0,2 -2,2 -2,0 z"
         id="path3126-17-6"
         inkscape:connector-curvature="0"
         sodipodi:nodetypes="csccsscssccscc" />
      <path
         style="fill:#ff5555;fill-opacity:1;stroke:none"
         d="m 179,755.36218 c 0,-11.04569 -5.71573,-18 -14,-18 -8.28427,0 -15,8.95431 -15,20 0.0349,0.95559 0.0182,1.89119 0,2.8125 0,7.29848 2.67685,14.37684 5,21 2.38903,6.81096 5.83357,12.78067 9.0625,18.875 5.00123,9.4394 15.9375,27.3125 15.9375,27.3125 0,0 10.93627,-17.8731 15.9375,-27.3125 3.22893,-6.09433 6.67347,-12.06404 9.0625,-18.875 2.32315,-6.62316 5,-13.70152 5,-21 -0.0284,-0.9744 -0.0186,-1.91462 0,-2.8125 0,-11.04569 -6.71573,-20 -15,-20 -8.28427,0 -14,6.95431 -14,18 0,2 -2,2 -2,0 z"
         id="path3126-4-5"
         inkscape:connector-curvature="0"
         sodipodi:nodetypes="csccsscssccscc" />
      <path
         style="fill:#ff5555;fill-opacity:1;stroke:none"
         d="m 89,989.3622 c 0,11.0457 -5.71573,18 -14,18 -8.28427,0 -15,-8.95431 -15,-20 0.0349,-0.95559 0.0182,-1.89119 0,-2.8125 0,-7.29848 2.67685,-14.37684 5,-21 2.38903,-6.81096 5.83357,-12.78067 9.0625,-18.875 C 79.06373,935.2353 90,917.36218 90,917.36218 c 0,0 10.93627,17.87312 15.9375,27.31252 3.22893,6.09433 6.67347,12.06404 9.0625,18.875 2.32315,6.62316 5,13.70152 5,21 -0.0284,0.9744 -0.0186,1.91462 0,2.8125 0,11.04569 -6.71573,20 -15,20 -8.28427,0 -14,-6.9543 -14,-18 0,-2 -2,-2 -2,0 z"
         id="path3126-0-3"
         inkscape:connector-curvature="0"
         sodipodi:nodetypes="csccsscssccscc" />
      <path
         style="fill:#ff5555;fill-opacity:1;stroke:none"
         d="m 269,989.3622 c 0,11.0457 -5.71573,18 -14,18 -8.28427,0 -15,-8.95431 -15,-20 0.0349,-0.95559 0.0182,-1.89119 0,-2.8125 0,-7.29848 2.67685,-14.37684 5,-21 2.38903,-6.81096 5.83357,-12.78067 9.0625,-18.875 C 259.06373,935.2353 270,917.36218 270,917.36218 c 0,0 10.93627,17.87312 15.9375,27.31252 3.22893,6.09433 6.67347,12.06404 9.0625,18.875 2.32315,6.62316 5,13.70152 5,21 -0.0284,0.9744 -0.0186,1.91462 0,2.8125 0,11.04569 -6.71573,20 -15,20 -8.28427,0 -14,-6.9543 -14,-18 0,-2 -2,-2 -2,0 z"
         id="path3126-9-92"
         inkscape:connector-curvature="0"
         sodipodi:nodetypes="csccsscssccscc" />
      <path
         style="fill:#ff5555;fill-opacity:1;stroke:none"
         d="m 29.5,611.36218 c 0,-5.52285 -2.857865,-9 -7,-9 -4.142135,0 -7.5,4.47715 -7.5,10 0.01745,0.4778 0.0091,0.94559 0,1.40625 0,3.64924 1.338425,7.18842 2.5,10.5 1.194515,3.40548 2.916785,6.39034 4.53125,9.4375 2.500615,4.7197 7.96875,13.65625 7.96875,13.65625 0,0 5.468135,-8.93655 7.96875,-13.65625 1.614465,-3.04716 3.336735,-6.03202 4.53125,-9.4375 1.161575,-3.31158 2.5,-6.85076 2.5,-10.5 -0.0142,-0.4872 -0.0093,-0.95731 0,-1.40625 0,-5.52285 -3.357865,-10 -7.5,-10 -4.142135,0 -7,3.47715 -7,9 0,1 -1,1 -1,0 z"
         id="path3126-1-4-4"
         inkscape:connector-curvature="0"
         sodipodi:nodetypes="csccsscssccscc" />
      <path
         style="fill:#ff5555;fill-opacity:1;stroke:none"
         d="m 329.5,953.36218 c 0,5.52285 -2.85787,9 -7,9 -4.14214,0 -7.5,-4.47715 -7.5,-10 0.0174,-0.4778 0.009,-0.94559 0,-1.40625 0,-3.64924 1.33842,-7.18842 2.5,-10.5 1.19452,-3.40548 2.91678,-6.39034 4.53125,-9.4375 2.50061,-4.7197 7.96875,-13.65625 7.96875,-13.65625 0,0 5.46814,8.93655 7.96875,13.65625 1.61446,3.04716 3.33673,6.03202 4.53125,9.4375 1.16157,3.31158 2.5,6.85076 2.5,10.5 -0.0142,0.4872 -0.009,0.95731 0,1.40625 0,5.52285 -3.35787,10 -7.5,10 -4.14214,0 -7,-3.47715 -7,-9 0,-1 -1,-1 -1,0 z"
         id="path3126-1-8"
         inkscape:connector-curvature="0"
         sodipodi:nodetypes="csccsscssccscc" />
    </g>
  </g>
</svg>
