<?xml version="1.0" encoding="UTF-8" standalone="no"?>
<!-- Created with Inkscape (http://www.inkscape.org/) -->

<svg
   xmlns:dc="http://purl.org/dc/elements/1.1/"
   xmlns:cc="http://creativecommons.org/ns#"
   xmlns:rdf="http://www.w3.org/1999/02/22-rdf-syntax-ns#"
   xmlns:svg="http://www.w3.org/2000/svg"
   xmlns="http://www.w3.org/2000/svg"
   xmlns:sodipodi="http://sodipodi.sourceforge.net/DTD/sodipodi-0.dtd"
   xmlns:inkscape="http://www.inkscape.org/namespaces/inkscape"
   width="95.25mm"
   height="142.875mm"
   viewBox="0 0 95.25 142.875"
   version="1.1"
   id="svg8415"
   sodipodi:docname="AH.svg"
   inkscape:version="0.92.2 2405546, 2018-03-11">
  <defs
     id="defs8409">
    <inkscape:path-effect
       effect="spiro"
       id="path-effect17935-89"
       is_visible="true" />
    <inkscape:path-effect
       effect="spiro"
       id="path-effect17939-8"
       is_visible="true" />
    <inkscape:path-effect
       effect="spiro"
       id="path-effect17935-8-7"
       is_visible="true" />
    <inkscape:path-effect
       effect="spiro"
       id="path-effect17939-6-0"
       is_visible="true" />
  </defs>
  <sodipodi:namedview
     id="base"
     pagecolor="#ffffff"
     bordercolor="#666666"
     borderopacity="1.0"
     inkscape:pageopacity="0.0"
     inkscape:pageshadow="2"
     inkscape:zoom="0.35"
     inkscape:cx="89.999981"
     inkscape:cy="219.99989"
     inkscape:document-units="mm"
     inkscape:current-layer="layer1"
     showgrid="true"
     showguides="false"
     inkscape:window-width="2560"
     inkscape:window-height="1421"
     inkscape:window-x="3200"
     inkscape:window-y="0"
     inkscape:window-maximized="1">
    <inkscape:grid
       type="xygrid"
       id="grid8435"
       originx="-82.020838"
       originy="-89.958355" />
  </sodipodi:namedview>
  <metadata
     id="metadata8412">
    <rdf:RDF>
      <cc:Work
         rdf:about="">
        <dc:format>image/svg+xml</dc:format>
        <dc:type
           rdf:resource="http://purl.org/dc/dcmitype/StillImage" />
        <dc:title></dc:title>
      </cc:Work>
    </rdf:RDF>
  </metadata>
  <g
     inkscape:label="Layer 1"
     inkscape:groupmode="layer"
     id="layer1"
     transform="translate(-82.020838,-64.166657)">
    <g
       transform="matrix(0.26458333,0,0,0.26458333,82.020838,-71.395835)"
       id="g3028">
      <rect
         rx="29.944447"
         ry="29.944447"
         y="512.86218"
         x="0.5"
         height="539"
         width="359"
         id="rect6472-070"
         style="fill:#ffffff;stroke:#000000;stroke-width:0.99999976" />
      <path
         inkscape:connector-curvature="0"
         id="path3497-6"
         d="m 27.5,542.36218 -9,50 h 5 l 2.34375,-13 h 8.3125 l 2.34375,13 h 5 l -9,-50 z m 2.5,13.90625 3.25,18.09375 h -6.5 z"
         style="fill:#ff5555;stroke:none" />
      <path
         inkscape:connector-curvature="0"
         id="path3497-5-0"
         d="m 327.5,1022.3622 -9,-50.00004 h 5 l 2.34375,13 h 8.3125 l 2.34375,-13 h 5 l -9,50.00004 z m 2.5,-13.9063 3.25,-18.09372 h -6.5 z"
         style="fill:#ff5555;stroke:none" />
      <path
         sodipodi:nodetypes="csccsscssccscc"
         inkscape:connector-curvature="0"
         id="path3126-70"
         d="m 179,755.36218 c 0,-11.04569 -5.71573,-18 -14,-18 -8.28427,0 -15,8.95431 -15,20 0.0349,0.95559 0.0182,1.89119 0,2.8125 0,7.29848 2.67685,14.37684 5,21 2.38903,6.81096 5.83357,12.78067 9.0625,18.875 5.00123,9.4394 15.9375,27.3125 15.9375,27.3125 0,0 10.93627,-17.8731 15.9375,-27.3125 3.22893,-6.09433 6.67347,-12.06404 9.0625,-18.875 2.32315,-6.62316 5,-13.70152 5,-21 -0.0284,-0.9744 -0.0186,-1.91462 0,-2.8125 0,-11.04569 -6.71573,-20 -15,-20 -8.28427,0 -14,6.95431 -14,18 0,2 -2,2 -2,0 z"
         style="fill:#ff5555;fill-opacity:1;stroke:none" />
      <path
         sodipodi:nodetypes="csccsscssccscc"
         inkscape:connector-curvature="0"
         id="path3126-1-5"
         d="m 29.5,611.36218 c 0,-5.52285 -2.857865,-9 -7,-9 -4.142135,0 -7.5,4.47715 -7.5,10 0.01745,0.4778 0.0091,0.94559 0,1.40625 0,3.64924 1.338425,7.18842 2.5,10.5 1.194515,3.40548 2.916785,6.39034 4.53125,9.4375 2.500615,4.7197 7.96875,13.65625 7.96875,13.65625 0,0 5.468135,-8.93655 7.96875,-13.65625 1.614465,-3.04716 3.336735,-6.03202 4.53125,-9.4375 1.161575,-3.31158 2.5,-6.85076 2.5,-10.5 -0.0142,-0.4872 -0.0093,-0.95731 0,-1.40625 0,-5.52285 -3.357865,-10 -7.5,-10 -4.142135,0 -7,3.47715 -7,9 0,1 -1,1 -1,0 z"
         style="fill:#ff5555;fill-opacity:1;stroke:none" />
      <path
         sodipodi:nodetypes="csccsscssccscc"
         inkscape:connector-curvature="0"
         id="path3126-1-7-67"
         d="m 329.5,953.36218 c 0,5.52285 -2.85787,9 -7,9 -4.14214,0 -7.5,-4.47715 -7.5,-10 0.0174,-0.4778 0.009,-0.94559 0,-1.40625 0,-3.64924 1.33842,-7.18842 2.5,-10.5 1.19452,-3.40548 2.91678,-6.39034 4.53125,-9.4375 2.50061,-4.7197 7.96875,-13.65625 7.96875,-13.65625 0,0 5.46814,8.93655 7.96875,13.65625 1.61446,3.04716 3.33673,6.03202 4.53125,9.4375 1.16157,3.31158 2.5,6.85076 2.5,10.5 -0.0142,0.4872 -0.009,0.95731 0,1.40625 0,5.52285 -3.35787,10 -7.5,10 -4.14214,0 -7,-3.47715 -7,-9 0,-1 -1,-1 -1,0 z"
         style="fill:#ff5555;fill-opacity:1;stroke:none" />
    </g>
  </g>
</svg>
