<?xml version="1.0" encoding="UTF-8" standalone="no"?>
<svg
   xmlns:dc="http://purl.org/dc/elements/1.1/"
   xmlns:cc="http://creativecommons.org/ns#"
   xmlns:rdf="http://www.w3.org/1999/02/22-rdf-syntax-ns#"
   xmlns:svg="http://www.w3.org/2000/svg"
   xmlns="http://www.w3.org/2000/svg"
   xmlns:sodipodi="http://sodipodi.sourceforge.net/DTD/sodipodi-0.dtd"
   xmlns:inkscape="http://www.inkscape.org/namespaces/inkscape"
   width="95.25mm"
   height="142.875mm"
   viewBox="0 0 95.25 142.875"
   version="1.1"
   id="svg24"
   sodipodi:docname="back.svg"
   inkscape:version="0.92.2 2405546, 2018-03-11">
  <metadata
     id="metadata28">
    <rdf:RDF>
      <cc:Work
         rdf:about="">
        <dc:format>image/svg+xml</dc:format>
        <dc:type
           rdf:resource="http://purl.org/dc/dcmitype/StillImage" />
      </cc:Work>
    </rdf:RDF>
  </metadata>
  <sodipodi:namedview
     pagecolor="#ffffff"
     bordercolor="#666666"
     borderopacity="1"
     objecttolerance="10"
     gridtolerance="10"
     guidetolerance="10"
     inkscape:pageopacity="0"
     inkscape:pageshadow="2"
     inkscape:window-width="2638"
     inkscape:window-height="1425"
     id="namedview26"
     showgrid="false"
     inkscape:zoom="1.7481481"
     inkscape:cx="35.98118"
     inkscape:cy="302.35912"
     inkscape:window-x="0"
     inkscape:window-y="54"
     inkscape:window-maximized="0"
     inkscape:current-layer="svg24" />
  <defs
     id="defs10">
    <linearGradient
       id="sunsetGradient"
       x1="0"
       y1="0"
       x2="0"
       y2="100%">
      <stop
         stop-color="#4a1200"
         stop-opacity="1"
         offset="0"
         id="stop2" />
      <stop
         stop-color="#ffeca0"
         stop-opacity="1"
         offset="1"
         id="stop4" />
    </linearGradient>
    <filter
       style="color-interpolation-filters:sRGB"
       id="blurFilter"
       x="-0.034354837"
       width="1.0687097"
       y="-0.026625001"
       height="1.05325">
      <feGaussianBlur
         stdDeviation="1"
         id="feGaussianBlur7" />
    </filter>
  </defs>
  <g
     transform="translate(-105.83333,-64.166649)"
     style="display:inline"
     id="g22">
    <rect
       style="fill:url(#sunsetGradient)"
       width="95.25"
       height="142.875"
       x="105.83334"
       y="64.166687"
       rx="7.8142576"
       ry="7.9227891"
       id="rect12" />
    <circle
       style="fill:#ffd200;filter:url(#blurFilter)"
       cx="153.5"
       cy="138"
       id="ellipse14"
       r="41" />
    <path
       style="fill:#3a8748"
       d="m 105.56876,162.06252 -0.008,37.18815 c -9.4e-4,4.45888 3.54461,8.05469 7.94531,8.05469 h 79.62109 c 4.40071,0 7.9145,-3.59593 7.94727,-8.05469 l 0.2733,-37.18815 z"
       mask="none"
       clip-path="none"
       id="path16"
       inkscape:connector-curvature="0" />
    <g
       aria-label="f"
       transform="scale(0.94840164,1.0544056)"
       style="fill:#3b87ef;stroke-width:4"
       id="g20">
      <path
         d="m 174.25813,76.881965 q 1.64598,2.273028 3.21359,7.054223 0.86218,2.743308 9.09211,0.23514 8.3083,-2.586548 7.44612,-5.251476 -3.05683,-9.48401 -8.93535,-11.365136 -3.44873,-1.097324 -10.58133,0.940563 -5.64338,1.645985 -9.64077,4.702815 -10.89486,8.229926 -16.22472,25.473581 -1.01894,3.370355 -2.11626,6.975845 -5.01634,0.62704 -9.71915,1.64598 -8.15155,1.80275 -9.64077,4.85958 -0.78381,1.72436 2.66492,1.72436 2.11627,0 4.07578,-0.47028 5.01633,-1.09732 10.81647,-1.5676 -4.23253,15.12738 -6.3488,27.27632 -5.9569,34.95759 -5.565,48.51738 0,0.86218 2.58655,0.94056 2.50817,0 5.72176,-0.7838 8.30831,-1.95951 8.22993,-5.25148 -0.3919,-11.75704 4.70281,-42.87399 2.50817,-15.36253 5.9569,-28.13851 3.21359,0.0784 9.09211,0.31352 6.42718,0.31352 9.17049,0.3919 6.03528,0.15676 11.67866,-3.60549 1.9595,-1.33247 1.64598,-2.35141 -0.3919,-1.09732 -2.74331,-1.1757 -21.0059,-0.54867 -26.88442,-0.47029 5.56499,-18.184214 11.67865,-26.962802 0.15676,-0.235141 0.62705,-0.783803 z"
         style="font-family:Snickles;fill:#3b87ef;stroke-width:4.01306868"
         id="path18"
         inkscape:connector-curvature="0" />
    </g>
  </g>
</svg>
