<svg
   xmlns:dc="http://purl.org/dc/elements/1.1/"
   xmlns:cc="http://creativecommons.org/ns#"
   xmlns:rdf="http://www.w3.org/1999/02/22-rdf-syntax-ns#"
   xmlns:svg="http://www.w3.org/2000/svg"
   xmlns="http://www.w3.org/2000/svg"
   xmlns:xlink="http://www.w3.org/1999/xlink"
   width="95.25mm"
   height="142.875mm"
   viewBox="0 0 95.25 142.875"
   version="1.1"
   id="svg8415">
  <defs
     id="defs8409">
    <linearGradient
       id="linearGradient5333">
      <stop
         style="stop-color:#4a1200;stop-opacity:1"
         offset="0"
         id="stop5329" />
      <stop
         style="stop-color:#ffeca0;stop-opacity:1"
         offset="1"
         id="stop5331" />
    </linearGradient>
    <clipPath
       clipPathUnits="userSpaceOnUse"
       id="clipPath5295">
      <rect
         style="opacity:1;fill:#3a8748;fill-opacity:1;stroke:#424242;stroke-width:0.26499999;stroke-linecap:round;stroke-linejoin:round;stroke-miterlimit:4;stroke-dasharray:none;stroke-opacity:1;paint-order:stroke fill markers"
         id="rect5297"
         width="95.25"
         height="142.875"
         x="47.625"
         y="49.614605"
         ry="7.9375014" />
    </clipPath>
    <linearGradient
       xlink:href="#linearGradient5333"
       id="linearGradient5335"
       x1="97.895836"
       y1="48.820854"
       x2="97.895836"
       y2="192.48961"
       gradientUnits="userSpaceOnUse"
       gradientTransform="translate(58.208333,14.552084)" />
  </defs>
  <g
     id="layer1"
     transform="translate(-105.83333,-64.166649)"
     style="display:inline">
    <rect
       style="opacity:1;fill:url(#linearGradient5335);fill-opacity:1;stroke:#424242;stroke-width:0.26317865;stroke-linecap:round;stroke-linejoin:round;stroke-miterlimit:4;stroke-dasharray:none;stroke-opacity:1;paint-order:stroke fill markers"
       id="rect5301"
       width="95.25"
       height="142.875"
       x="105.83334"
       y="64.166687"
       rx="7.8142576"
       ry="7.9227891" />
    <ellipse
       style="opacity:1;fill:#ffd200;fill-opacity:1;stroke:#424242;stroke-width:0.26499999;stroke-linecap:round;stroke-linejoin:round;stroke-miterlimit:4;stroke-dasharray:none;stroke-opacity:1;paint-order:stroke fill markers"
       cx="153.01241"
       cy="142.73987"
       id="path5337"
       rx="41.010418"
       ry="52.916664" />
    <rect
       style="opacity:1;fill:#3a8748;fill-opacity:1;stroke:#424242;stroke-width:0.280633;stroke-linejoin:round;stroke-miterlimit:4;stroke-dasharray:none;stroke-opacity:1;paint-order:stroke fill markers"
       id="rect5243"
       width="95.25"
       height="44.979168"
       x="47.625"
       y="147.51044"
       clip-path="url(#clipPath5295)"
       transform="translate(58.208333,14.552084)" />
    <g
       aria-label="f"
       transform="scale(0.94840164,1.0544056)"
       style="font-style:normal;font-variant:normal;font-weight:normal;font-stretch:normal;font-size:160.52275085px;line-height:1.25;font-family:Snickles;letter-spacing:0px;word-spacing:0px;fill:#3b87ef;fill-opacity:1;stroke:none;"
       id="text5343">
      <path
         d="m 174.25813,76.881965 q 1.64598,2.273028 3.21359,7.054223 0.86218,2.743308 9.09211,0.23514 8.3083,-2.586548 7.44612,-5.251476 -3.05683,-9.48401 -8.93535,-11.365136 -3.44873,-1.097324 -10.58133,0.940563 -5.64338,1.645985 -9.64077,4.702815 -10.89486,8.229926 -16.22472,25.473581 -1.01894,3.370355 -2.11626,6.975845 -5.01634,0.62704 -9.71915,1.64598 -8.15155,1.80275 -9.64077,4.85958 -0.78381,1.72436 2.66492,1.72436 2.11627,0 4.07578,-0.47028 5.01633,-1.09732 10.81647,-1.5676 -4.23253,15.12738 -6.3488,27.27632 -5.9569,34.95759 -5.565,48.51738 0,0.86218 2.58655,0.94056 2.50817,0 5.72176,-0.7838 8.30831,-1.95951 8.22993,-5.25148 -0.3919,-11.75704 4.70281,-42.87399 2.50817,-15.36253 5.9569,-28.13851 3.21359,0.0784 9.09211,0.31352 6.42718,0.31352 9.17049,0.3919 6.03528,0.15676 11.67866,-3.60549 1.9595,-1.33247 1.64598,-2.35141 -0.3919,-1.09732 -2.74331,-1.1757 -21.0059,-0.54867 -26.88442,-0.47029 5.56499,-18.184214 11.67865,-26.962802 0.15676,-0.235141 0.62705,-0.783803 z"
         id="path837" />
    </g>
  </g>
</svg>
